<svg xmlns="http://www.w3.org/2000/svg"><symbol fill="none" id="chevron-down-white" viewBox="0 0 9 7"><path d="M8.934 5.348a.308.308 0 0 1-.09.206L8.398 6a.308.308 0 0 1-.205.09.308.308 0 0 1-.206-.09L4.478 2.491.97 6.001a.308.308 0 0 1-.205.089A.29.29 0 0 1 .56 6l-.447-.446a.308.308 0 0 1-.089-.206c0-.071.036-.151.09-.205l4.16-4.16a.308.308 0 0 1 .205-.09c.072 0 .152.036.206.09l4.16 4.16c.054.054.09.134.09.205Z" fill="#fff"/></symbol><symbol fill="none" id="chevron-down" viewBox="0 0 9 6"><path d="M8.934 1.51a.308.308 0 0 0-.09-.205L8.398.86a.308.308 0 0 0-.205-.09.308.308 0 0 0-.206.09L4.478 4.368.97.859a.308.308 0 0 0-.205-.09.29.29 0 0 0-.205.09l-.447.446a.308.308 0 0 0-.089.206c0 .071.036.152.09.205l4.16 4.16c.054.054.134.09.205.09a.308.308 0 0 0 .206-.09l4.16-4.16a.308.308 0 0 0 .09-.205Z" fill="#000"/></symbol><symbol fill="none" id="dollar" viewBox="0 0 39 27"><path d="M15.729 18.536v-1.929H18.3v-5.786h-.04c-.321.503-.623.724-1.105 1.146l-1.547-1.608 2.973-2.752h2.29v9h2.572v1.929h-7.714Zm10.286-5.143c0-3.656-2.21-8.357-6.43-8.357-4.218 0-6.428 4.7-6.428 8.357 0 3.656 2.21 8.357 6.429 8.357s6.429-4.7 6.429-8.357ZM36.3 18.536a5.153 5.153 0 0 0-5.143 5.143H8.014a5.153 5.153 0 0 0-5.142-5.143V8.25a5.153 5.153 0 0 0 5.142-5.143h23.143A5.153 5.153 0 0 0 36.3 8.25v10.286ZM38.872 1.82c0-.703-.583-1.285-1.286-1.285h-36A1.296 1.296 0 0 0 .3 1.82v23.143c0 .703.583 1.286 1.286 1.286h36c.703 0 1.286-.583 1.286-1.286V1.821Z" fill="#fff"/></symbol><symbol fill="none" id="dots" viewBox="0 0 111 6"><circle cx="81.011" cy="3" r="3" fill="#C4C4C4"/><circle cx="107.011" cy="3" r="3" fill="#C4C4C4"/><circle cx="55.011" cy="3" r="3" fill="#C4C4C4"/><circle cx="29.011" cy="3" r="3" fill="#C4C4C4"/><circle cx="3.011" cy="3" r="3" fill="#C4C4C4"/></symbol><symbol fill="none" id="email" viewBox="0 0 16 13"><path d="M14.75 10.85a.275.275 0 0 1-.268.267H2.162a.275.275 0 0 1-.269-.268V4.421c.176.2.369.385.578.552a112.81 112.81 0 0 1 3.566 2.83c.627.527 1.406 1.171 2.276 1.171h.017c.87 0 1.65-.644 2.277-1.172a114.812 114.812 0 0 1 3.566-2.829c.209-.167.402-.352.577-.552v6.428Zm0-8.798c0 .711-.686 1.64-1.23 2.067a517.902 517.902 0 0 0-3.357 2.654c-.443.36-1.247 1.13-1.833 1.13h-.017c-.586 0-1.39-.77-1.833-1.13a518.446 518.446 0 0 0-3.356-2.654c-.754-.594-1.23-1.423-1.23-2.377 0-.142.125-.268.267-.268h12.321c.319 0 .268.368.268.578Zm1.072-.31c0-.737-.603-1.34-1.34-1.34H2.162c-.738 0-1.34.603-1.34 1.34v9.107c0 .737.602 1.34 1.34 1.34h12.32c.737 0 1.34-.603 1.34-1.34V1.742Z" fill="#3E9CDC"/></symbol><symbol fill="none" id="file" viewBox="0 0 18 21"><path d="M16.813 4.609 13.33 1.127c-.413-.413-1.239-.76-1.83-.76h-10A1.073 1.073 0 0 0 .429 1.44v17.858c0 .591.48 1.07 1.071 1.07h15a1.07 1.07 0 0 0 1.071-1.07V6.439c0-.591-.346-1.417-.759-1.83Zm-4.956-2.723c.19.067.38.167.458.245l3.493 3.494c.078.078.179.267.246.457h-4.197V1.886Zm4.286 17.053H1.857V1.796h8.572V6.44c0 .592.48 1.072 1.071 1.072h4.643V18.94ZM4.714 9.296v.715c0 .2.157.357.357.357h7.858c.2 0 .357-.156.357-.357v-.715c0-.2-.156-.357-.357-.357H5.07c-.2 0-.357.157-.357.357Zm8.215 2.5H5.07c-.2 0-.357.157-.357.358v.714c0 .2.157.357.357.357h7.858c.2 0 .357-.156.357-.357v-.714a.352.352 0 0 0-.357-.357Zm0 2.858H5.07c-.2 0-.357.156-.357.357v.714c0 .201.157.357.357.357h7.858c.2 0 .357-.156.357-.357v-.714a.352.352 0 0 0-.357-.357Z" fill="#272733"/></symbol><symbol fill="none" id="mail" viewBox="0 0 37 29"><path d="M33.795 25.107a.661.661 0 0 1-.643.643H3.581a.661.661 0 0 1-.643-.643V9.68c.422.482.884.924 1.386 1.325 2.873 2.21 5.766 4.46 8.558 6.79 1.507 1.266 3.375 2.813 5.464 2.813h.04c2.09 0 3.958-1.547 5.465-2.812 2.792-2.33 5.685-4.58 8.558-6.79.502-.402.964-.844 1.386-1.326v15.428Zm0-21.114c0 1.708-1.647 3.938-2.953 4.962a1287.32 1287.32 0 0 0-8.056 6.369c-1.065.864-2.993 2.712-4.4 2.712h-.04c-1.406 0-3.334-1.849-4.4-2.712-2.67-2.13-5.363-4.26-8.055-6.369C4.083 7.53 2.938 5.54 2.938 3.25a.66.66 0 0 1 .643-.643h29.571c.764 0 .643.884.643 1.386Zm2.572-.743A3.224 3.224 0 0 0 33.152.036H3.581A3.224 3.224 0 0 0 .367 3.25v21.857a3.224 3.224 0 0 0 3.214 3.214h29.571a3.224 3.224 0 0 0 3.215-3.214V3.25Z" fill="#fff"/></symbol><symbol fill="none" id="percent" viewBox="0 0 31 32"><path d="M25.786 23.964a2.59 2.59 0 0 1-2.572 2.572 2.59 2.59 0 0 1-2.571-2.572 2.59 2.59 0 0 1 2.571-2.571 2.59 2.59 0 0 1 2.572 2.571ZM10.357 8.536a2.59 2.59 0 0 1-2.571 2.571 2.59 2.59 0 0 1-2.572-2.571 2.59 2.59 0 0 1 2.572-2.572 2.59 2.59 0 0 1 2.571 2.572ZM30.93 23.964a7.716 7.716 0 0 0-7.715-7.714 7.716 7.716 0 0 0-7.714 7.714 7.716 7.716 0 0 0 7.714 7.715 7.716 7.716 0 0 0 7.715-7.715ZM29 2.107c0-.703-.583-1.286-1.286-1.286H24.5c-.402 0-.784.201-1.025.523L2.261 29.629c-.16.221-.261.483-.261.764 0 .703.583 1.286 1.286 1.286H6.5c.402 0 .783-.201 1.025-.523L28.739 2.871c.16-.221.261-.483.261-.764ZM15.5 8.536A7.716 7.716 0 0 0 7.786.82 7.716 7.716 0 0 0 .07 8.536a7.716 7.716 0 0 0 7.715 7.714A7.716 7.716 0 0 0 15.5 8.536Z" fill="#fff"/></symbol><symbol fill="none" id="qiwi-wallet" viewBox="0 0 21 20"><path d="M16.912 13.456c.06.388-.067.552-.195.552s-.314-.158-.521-.47c-.207-.313-.278-.661-.178-.84a.287.287 0 0 1 .17-.126.298.298 0 0 1 .213.022c.341.124.475.63.51.862Zm-1.888.85c.41.335.535.733.318 1.013a.687.687 0 0 1-.55.238.998.998 0 0 1-.626-.218c-.37-.314-.48-.825-.237-1.114a.534.534 0 0 1 .434-.176c.245.008.479.099.661.257Zm-.684 3.23c1.762 0 3.674.585 5.791 2.4.211.18.493-.045.309-.27-2.08-2.54-4.008-3.025-5.922-3.433-2.346-.502-3.554-1.78-4.4-3.182-.166-.279-.242-.23-.257.13a7.655 7.655 0 0 0 .124 1.59H9.7a6.226 6.226 0 0 1-3.377-.992 5.927 5.927 0 0 1-2.239-2.639 5.701 5.701 0 0 1-.345-3.397A5.823 5.823 0 0 1 5.4 4.733a6.145 6.145 0 0 1 3.112-1.61 6.27 6.27 0 0 1 3.512.335 6.04 6.04 0 0 1 2.728 2.166 5.744 5.744 0 0 1 .986 3.95 9.38 9.38 0 0 0-1.93-.035c-.232.02-.198.13-.025.154 2.004.35 3.391 1.55 3.706 3.74a.053.053 0 0 0 .014.03.057.057 0 0 0 .063.014.055.055 0 0 0 .025-.021 8.658 8.658 0 0 0 1.24-5.608 8.78 8.78 0 0 0-2.554-5.176 9.31 9.31 0 0 0-5.29-2.59A9.46 9.46 0 0 0 5.165 1.15a9.001 9.001 0 0 0-3.94 4.286 8.625 8.625 0 0 0-.417 5.72 8.884 8.884 0 0 0 3.28 4.779A9.399 9.399 0 0 0 9.7 17.784c1.343.004 2.68-.25 4.641-.25v.002Z" fill="#3E9CDC"/></symbol><symbol fill="none" id="search" viewBox="0 0 35 35"><path d="M23.929 14.929c0 4.962-4.038 9-9 9s-9-4.038-9-9 4.038-9 9-9 9 4.038 9 9Zm10.285 16.714c0-.683-.281-1.346-.743-1.808l-6.89-6.89a14.11 14.11 0 0 0 2.49-8.016C29.071 7.114 22.743.786 14.93.786 7.114.786.786 7.114.786 14.929c0 7.814 6.328 14.142 14.143 14.142a14.11 14.11 0 0 0 8.015-2.49l6.89 6.87a2.522 2.522 0 0 0 1.809.763 2.59 2.59 0 0 0 2.571-2.571Z" fill="#fff"/></symbol><symbol fill="none" id="subtract" viewBox="0 0 40 43"><path d="M15.993 23.372v-1.285c0-.362.281-.643.643-.643H30.78c.361 0 .643.281.643.643v1.285a.635.635 0 0 1-.643.643H16.636a.635.635 0 0 1-.643-.643Zm.643 3.215H30.78c.361 0 .643.281.643.643v1.285a.635.635 0 0 1-.643.643H16.636a.635.635 0 0 1-.643-.643V27.23c0-.362.281-.643.643-.643Zm0 5.143H30.78c.361 0 .643.28.643.642v1.286a.635.635 0 0 1-.643.643H16.636a.635.635 0 0 1-.643-.643v-1.286c0-.361.281-.642.643-.642Z" fill="#fff"/><path fill-rule="evenodd" clip-rule="evenodd" d="M8.279 15.315a7.415 7.415 0 1 1 7.173-9.3h12.755c1.065 0 2.552.623 3.295 1.366l6.268 6.268c.743.744 1.366 2.23 1.366 3.295v23.143a1.93 1.93 0 0 1-1.928 1.928h-27a1.93 1.93 0 0 1-1.93-1.928V15.315Zm2.571-.458a7.421 7.421 0 0 0 4.813-6.27h10.616v8.357a1.93 1.93 0 0 0 1.928 1.928h8.358v20.572H10.85V14.857Zm18.824-5.668c-.14-.14-.482-.321-.824-.442v7.554h7.554c-.12-.341-.301-.683-.442-.824L29.674 9.19ZM9.279 8.9h4v-2h-4v-4h-2v4h-4v2h4v4h2v-4Z" fill="#fff"/></symbol><symbol fill="none" id="vk" viewBox="0 0 12 14"><path d="M11.18 9.286c0 .65-.123 1.222-.369 1.714s-.577.9-.993 1.222a4.598 4.598 0 0 1-1.626.826c-.586.164-1.333.246-2.241.246H.713V.207h4.623c.96 0 1.687.038 2.18.114.497.07.963.223 1.397.457.469.252.817.59 1.046 1.011.234.422.351.908.351 1.46 0 .638-.16 1.206-.483 1.704a2.793 2.793 0 0 1-1.318 1.099v.07c.808.17 1.456.519 1.942 1.046.486.522.73 1.228.73 2.118ZM6.97 3.907c0-.21-.055-.427-.167-.65a.961.961 0 0 0-.5-.483 2.042 2.042 0 0 0-.774-.15 36.06 36.06 0 0 0-1.318-.017h-.229v2.768h.413c.563 0 .955-.006 1.178-.017a1.91 1.91 0 0 0 .703-.185c.264-.123.445-.293.545-.51.1-.217.15-.469.15-.756Zm.827 5.318c0-.405-.082-.721-.246-.95-.165-.228-.41-.4-.739-.518-.199-.076-.474-.117-.826-.123a43.437 43.437 0 0 0-1.397-.018h-.607v3.279h.176c.855 0 1.447-.006 1.775-.018a2.77 2.77 0 0 0 1.002-.237c.3-.13.516-.317.65-.563.141-.252.212-.536.212-.852Z" fill="#3E9CDC"/></symbol><symbol fill="none" id="web-money" viewBox="0 0 19 18"><path d="M9.34 0a9.12 9.12 0 0 1 3.957.901c.189.085.379.187.567.29l-.826.73L11.801.647l-2.133 1.87-1.256-1.343L4.49 4.66l2.511 2.737-.98.85 2.477 2.738-.98.85 3.543 3.893 2.098-1.904 1.824 2.04c-.362.273-.758.546-1.187.783a9.07 9.07 0 0 1-4.438 1.156c-4.971 0-9.012-3.995-9.012-8.909C.328 4.013 4.37 0 9.34 0ZM7.69 8.349l2.15-1.905 1.926 2.126-2.15 1.904-1.927-2.125Zm1.53 3.672 2.133-1.92 1.944 2.124-2.15 1.905-1.927-2.11ZM6.16 4.727l2.149-1.904 1.926 2.125-2.15 1.904L6.16 4.727Zm3.937-1.02 1.6-1.429 1.445 1.582-1.6 1.445-1.445-1.598Zm2.856 6.546 1.6-1.428 1.444 1.597-1.6 1.43-1.444-1.6Zm1.41 3.214 1.6-1.429 1.444 1.582-1.6 1.444-1.444-1.597Zm.654-7.346 1.066-.952.963 1.054-1.066.952-.963-1.054ZM13.64 2.975l1.066-.968.964 1.07-1.067.953-.963-1.055Zm2.734 6.292 1.067-.952.98 1.054-1.083.952-.963-1.054Zm-4.798-2.364 1.6-1.428 1.444 1.581-1.599 1.429-1.445-1.582Z" fill="#3E9CDC"/></symbol><symbol fill="none" id="yandex-money" viewBox="0 0 15 18"><path fill-rule="evenodd" clip-rule="evenodd" d="M.78 8.93c0-.983.083-1.608 2.138-3.13C4.62 4.542 10.073.238 10.073.238v7.185h4.147v10.34H2.075A1.294 1.294 0 0 1 .78 16.479V8.93Z" fill="#3E9CDC"/><path fill-rule="evenodd" clip-rule="evenodd" d="M10.073 7.422v4.163l-7.62 5.148 9.634-3.108V7.422h-2.014Z" fill="#000" fill-opacity=".2"/><path fill-rule="evenodd" clip-rule="evenodd" d="M6.59 7.207c.446-.527 1.097-.713 1.454-.415.358.297.286.965-.16 1.492-.445.526-1.096.712-1.453.415-.358-.298-.286-.966.16-1.492Z" fill="#231F20"/></symbol></svg>